<svg viewBox="0 0 100 100" fill="none" xmlns="http://www.w3.org/2000/svg">
    <!-- Círculo principal -->
    <circle cx="50" cy="50" r="48" fill="#1A1F71" stroke="#D4AF37" stroke-width="3"/>
    
    <!-- Poltrona/Sofá simplificada para favicon -->
    <rect x="25" y="40" width="50" height="25" rx="8" fill="#D4AF37"/>
    <rect x="30" y="45" width="40" height="15" rx="3" fill="#1A1F71"/>
    
    <!-- Pontos decorativos -->
    <circle cx="35" cy="50" r="2" fill="#D4AF37"/>
    <circle cx="50" cy="50" r="2" fill="#D4AF37"/>
    <circle cx="65" cy="50" r="2" fill="#D4AF37"/>
    
    <!-- Equipamento de limpeza simplificado -->
    <rect x="72" y="25" width="15" height="12" rx="2" fill="#D4AF37"/>
    <rect x="74" y="27" width="11" height="2" fill="#1A1F71"/>
    <rect x="74" y="30" width="11" height="2" fill="#1A1F71"/>
    <rect x="74" y="33" width="11" height="2" fill="#1A1F71"/>
    
    <!-- Estrelas pequenas -->
    <path d="M20 25 L21 27 L23 27 L22 28 L22.5 30 L20 29 L17.5 30 L18 28 L17 27 L19 27 Z" fill="#D4AF37"/>
    <path d="M80 75 L81 77 L83 77 L82 78 L82.5 80 L80 79 L77.5 80 L78 78 L77 77 L79 77 Z" fill="#D4AF37"/>
    
    <!-- Brilho central -->
    <circle cx="50" cy="50" r="6" fill="rgba(212, 175, 55, 0.4)"/>
</svg> 